<?xml version="1.0" encoding="utf-8"?>
<!-- Generator: Adobe Illustrator 16.0.0, SVG Export Plug-In . SVG Version: 6.00 Build 0)  -->
<!DOCTYPE svg PUBLIC "-//W3C//DTD SVG 1.1//EN" "http://www.w3.org/Graphics/SVG/1.1/DTD/svg11.dtd">
<svg version="1.1" id="Layer_1" xmlns="http://www.w3.org/2000/svg" xmlns:xlink="http://www.w3.org/1999/xlink" x="0px" y="0px"
	 width="16px" height="16px" viewBox="0 0 16 16" enable-background="new 0 0 16 16" xml:space="preserve">
<path fill="#3163AA" d="M2,13.5V7h1v6.5C3,13.776,3.224,14,3.5,14h9c0.276,0,0.5-0.224,0.5-0.5V7h1v6.5c0,0.828-0.672,1.5-1.5,1.5
	h-9C2.672,15,2,14.328,2,13.5z M13,2.5V6l-2-2V2.5C11,2.224,11.224,2,11.5,2h1C12.776,2,13,2.224,13,2.5z"/>
<path fill="#3163AA" d="M7.293,1.5c0.391-0.391,1.023-0.391,1.414,0l6.646,6.646c0.196,0.195,0.196,0.512,0,0.708
	c-0.195,0.195-0.512,0.195-0.707,0L8,2.207L1.354,8.854c-0.196,0.195-0.512,0.195-0.708,0s-0.196-0.512,0-0.708L7.293,1.5z"/>
</svg>
