<?xml version="1.0" encoding="utf-8"?>
<!-- Generator: Adobe Illustrator 16.0.0, SVG Export Plug-In . SVG Version: 6.00 Build 0)  -->
<!DOCTYPE svg PUBLIC "-//W3C//DTD SVG 1.1//EN" "http://www.w3.org/Graphics/SVG/1.1/DTD/svg11.dtd">
<svg version="1.1" id="Layer_1" xmlns="http://www.w3.org/2000/svg" xmlns:xlink="http://www.w3.org/1999/xlink" x="0px" y="0px"
	 width="16px" height="16px" viewBox="0 0 16 16" enable-background="new 0 0 16 16" xml:space="preserve">
<path fill="#3163AA" d="M10.479,1.647c0.08-0.264-0.067-0.544-0.332-0.625C9.883,0.941,9.604,1.089,9.521,1.353l-4,13
	c-0.081,0.264,0.067,0.543,0.331,0.625c0.264,0.08,0.544-0.067,0.625-0.332L10.479,1.647z M4.854,4.146
	C5.05,4.341,5.05,4.658,4.855,4.853c0,0,0,0-0.001,0.001L1.707,8l3.147,3.146c0.196,0.195,0.196,0.512,0,0.707s-0.512,0.195-0.708,0
	l-3.5-3.5C0.45,8.159,0.45,7.842,0.645,7.647c0,0,0,0,0.001-0.001l3.5-3.5C4.341,3.951,4.658,3.95,4.854,4.146
	C4.854,4.146,4.854,4.146,4.854,4.146z M11.146,4.146c-0.196,0.195-0.196,0.512-0.002,0.707c0.001,0,0.001,0,0.002,0.001L14.293,8
	l-3.146,3.146c-0.196,0.195-0.196,0.512,0,0.707c0.195,0.195,0.512,0.195,0.707,0l3.5-3.5c0.196-0.195,0.196-0.512,0.002-0.707
	c-0.001,0-0.001,0-0.002-0.001l-3.5-3.5C11.659,3.951,11.342,3.95,11.146,4.146C11.146,4.146,11.146,4.146,11.146,4.146z"/>
</svg>
